# xmcd
#
# Track frame offsets:
#	150
#	14862
#	34152
#	52442
#	68635
#	92402
#	110205
#	120000
#	138185
#	160942
#	176027
#	191727
#	211352
#	224245
#	239777
#	255882
#
# Disc length: 3676 seconds
#
# Revision: 2
# Processed by: cddbd v1.5.2PL0 Copyright (c) Steve Scherf et al.
# Submitted via: audiograbber 1.83.01
#
DISCID=f50e5a10
DTITLE=Robert Lockwood, Jr. - Delta Crossroads
DYEAR=2000
DGENRE=Blues
TTITLE0=32-20 Blues
TTITLE1=Mean Mistreater Mama
TTITLE2=This Little Girl Of Mine
TTITLE3=Stop Breakin' Down Blues
TTITLE4=My Woman Came Walking Down
TTITLE5=C.C. Rider
TTITLE6=Little Queen Of Spades
TTITLE7=I Believe I'll Dust My Broom
TTITLE8=In The Evening (When The Sun Goes Down)
TTITLE9=We're Gonna Ball Tonight
TTITLE10=Mr. Downchild
TTITLE11=Run Your Mama
TTITLE12=Ramblin' On My Mind
TTITLE13=Love In Vain Blues
TTITLE14=Train My Baby
TTITLE15=Keys To The Highway
EXTD=YEAR: 2000 ID3G:   0
EXTT0=
EXTT1=
EXTT2=
EXTT3=
EXTT4=
EXTT5=
EXTT6=
EXTT7=
EXTT8=
EXTT9=
EXTT10=
EXTT11=
EXTT12=
EXTT13=
EXTT14=
EXTT15=
PLAYORDER=
